<?xml version="1.0" encoding="UTF-8"?>
<!-- Generator: Adobe Illustrator 22.1.0, SVG Export Plug-In . SVG Version: 6.00 Build 0)  -->
<svg xmlns="http://www.w3.org/2000/svg" xmlns:xlink="http://www.w3.org/1999/xlink" version="1.1" x="0px" y="0px" viewBox="0 0 4754 7029" style="enable-background:new 0 0 4754 7029;" xml:space="preserve">
<style type="text/css">
	.st0{fill:#FFFFFF;}
	.st1{font-family:'Arial-BoldMT';}
	.st2{font-size:53.1637px;}
</style>
<g id="_x34_76.4">
	<text transform="matrix(0.9999 0 0 1 2282.0718 698.7222)" class="st0 st1 st2">476.4</text>
</g>
<g id="_x34_76.15">
	<text transform="matrix(0.9999 0 0 1 2282.0718 1420.229)" class="st0 st1 st2">476.15</text>
</g>
<g id="_x34_77.1">
	<text transform="matrix(0.9999 0 0 1 2282.0718 2487.2998)" class="st0 st1 st2">477.1</text>
</g>
<g id="_x34_77.13">
	<text transform="matrix(0.9999 0 0 1 2282.0718 3265.7676)" class="st0 st1 st2">477.13</text>
</g>
<g id="_x34_78.2">
	<text transform="matrix(0.9999 0 0 1 2282.0718 4503.7217)" class="st0 st1 st2">478.2</text>
</g>
<g id="_x34_78.15">
	<text transform="matrix(0.9999 0 0 1 4298.3447 911.377)" class="st0 st1 st2">478.15</text>
</g>
<g id="_x34_79.1">
	<text transform="matrix(0.9999 0 0 1 4298.3447 1948.0684)" class="st0 st1 st2">479.1</text>
</g>
<g id="_x34_79.15">
	<text transform="matrix(0.9999 0 0 1 4298.3447 2886.0269)" class="st0 st1 st2">479.15</text>
</g>
<g id="_x34_80.1">
	<text transform="matrix(0.9999 0 0 1 4298.3447 3918.9209)" class="st0 st1 st2">480.1</text>
</g>
<g id="_x34_80.15">
	<text transform="matrix(0.9999 0 0 1 4298.3447 4826.501)" class="st0 st1 st2">480.15</text>
</g>
</svg>
