<?xml version="1.0" encoding="UTF-8"?>
<!-- Generator: Adobe Illustrator 22.1.0, SVG Export Plug-In . SVG Version: 6.00 Build 0)  -->
<svg xmlns="http://www.w3.org/2000/svg" xmlns:xlink="http://www.w3.org/1999/xlink" version="1.1" x="0px" y="0px" viewBox="0 0 807.5 881.1" style="enable-background:new 0 0 807.5 881.1;" xml:space="preserve">
<style type="text/css">
	.st0{fill:#FFFFFF;}
	.st1{font-family:'Arial-BoldMT';}
	.st2{font-size:8px;}
</style>
<g id="_x32_41.21">
	<text transform="matrix(1 0 0 1 89.3304 81.496)" class="st0 st1 st2">241.21</text>
</g>
<g id="_x32_42.11">
	<text transform="matrix(1 0 0 1 89.3304 248.4252)" class="st0 st1 st2">242.11</text>
</g>
<g id="_x32_42.16">
	<text transform="matrix(1 0 0 1 89.3304 368.1103)" class="st0 st1 st2">242.16</text>
</g>
<g id="_x32_41.29">
	<text transform="matrix(1 0 0 1 89.3304 172.4409)" class="st1 st2">241.29</text>
</g>
<g id="_x32_42.27">
	<text transform="matrix(1 0 0 1 89.3304 520.8661)" class="st1 st2">242.27</text>
</g>
<g id="_x32_43.5">
	<text transform="matrix(1 0 0 1 89.3304 676.7714)" class="st1 st2">243.5</text>
</g>
<g id="_x32_43.14">
	<text transform="matrix(1 0 0 1 89.3304 778.3466)" class="st1 st2">243.14</text>
</g>
<g id="_x32_46.8">
	<text transform="matrix(1 0 0 1 762.66 96.8505)" class="st1 st2">246.8</text>
</g>
<g id="_x32_46.15">
	<text transform="matrix(1 0 0 1 762.66 166.5356)" class="st1 st2">246.15</text>
</g>
<g id="_x32_46.28">
	<text transform="matrix(1 0 0 1 762.66 246.0629)" class="st1 st2">246.28</text>
</g>
<g id="_x32_47.3">
	<text transform="matrix(1 0 0 1 762.66 362.5986)" class="st1 st2">247.3</text>
</g>
<g id="_x32_47.13">
	<text transform="matrix(1 0 0 1 762.66 507.4804)" class="st1 st2">247.13</text>
</g>
<g id="_x32_47.21">
	<text transform="matrix(1 0 0 1 762.66 675.1972)" class="st1 st2">247.21</text>
</g>
<g id="_x32_48.1">
	<text transform="matrix(1 0 0 1 762.66 763.7792)" class="st1 st2">248.1</text>
</g>
<g id="_x32_43.29">
	<text transform="matrix(1 0 0 1 357.0848 68.1103)" class="st0 st1 st2">243.29</text>
</g>
<g id="_x32_44.7">
	<text transform="matrix(1 0 0 1 357.0848 153.937)" class="st0 st1 st2">244.7</text>
</g>
<g id="_x32_44.19">
	<text transform="matrix(1 0 0 1 357.0848 230.7085)" class="st0 st1 st2">244.19</text>
</g>
<g id="_x32_44.25">
	<text transform="matrix(1 0 0 1 357.0848 347.6377)" class="st0 st1 st2">244.25</text>
</g>
<g id="_x32_45.5">
	<text transform="matrix(1 0 0 1 357.0848 494.8818)" class="st0 st1 st2">245.5</text>
</g>
<g id="_x32_45.13">
	<text transform="matrix(1 0 0 1 357.0848 662.5986)" class="st0 st1 st2">245.13</text>
</g>
<g id="_x32_45.21">
	<text transform="matrix(1 0 0 1 357.0848 761.0234)" class="st0 st1 st2">245.21</text>
</g>
</svg>
