<?xml version="1.0" encoding="UTF-8"?>
<!-- Generator: Adobe Illustrator 22.1.0, SVG Export Plug-In . SVG Version: 6.00 Build 0)  -->
<svg xmlns="http://www.w3.org/2000/svg" xmlns:xlink="http://www.w3.org/1999/xlink" version="1.1" x="0px" y="0px" viewBox="0 0 781.1 544.1" style="enable-background:new 0 0 781.1 544.1;" xml:space="preserve">
<style type="text/css">
	.st0{fill:#FFFEFE;}
	.st1{font-family:'Arial-BoldMT';}
	.st2{font-size:8px;}
	.st3{fill:#FFFFFF;}
</style>
<g id="_x32_14.2">
	<text transform="matrix(1 0 0 1 56.2991 55.1181)" class="st0 st1 st2">214.2</text>
</g>
<g id="_x32_14.14">
	<text transform="matrix(1 0 0 1 56.2991 210.2363)" class="st0 st1 st2">214.14</text>
</g>
<g id="_x32_15.7">
	<text transform="matrix(1 0 0 1 56.2991 291.7324)" class="st0 st1 st2">215.7</text>
</g>
<g id="_x32_15.17">
	<text transform="matrix(1 0 0 1 56.2991 377.165)" class="st0 st1 st2">215.17</text>
</g>
<g id="_x32_14.9">
	<text transform="matrix(1 0 0 1 56.2991 123.622)" class="st1 st2">214.9</text>
</g>
<g id="_x32_15.23">
	<text transform="matrix(1 0 0 1 56.2991 477.5595)" class="st1 st2">215.23</text>
</g>
<g id="_x32_18.19">
	<text transform="matrix(1 0 0 1 733.0706 49.2128)" class="st1 st2">218.19</text>
</g>
<g id="_x32_18.26">
	<text transform="matrix(1 0 0 1 733.0706 128.3466)" class="st1 st2">218.26</text>
</g>
<g id="_x32_19.1">
	<text transform="matrix(1 0 0 1 733.0706 208.6615)" class="st1 st2">219.1</text>
</g>
<g id="_x32_19.25">
	<text transform="matrix(1 0 0 1 733.0706 291.7324)" class="st1 st2">219.25</text>
</g>
<g id="_x32_20.4">
	<text transform="matrix(1 0 0 1 733.0706 382.6767)" class="st1 st2">220.4</text>
</g>
<g id="_x32_20.10">
	<text transform="matrix(1 0 0 1 733.0706 485.039)" class="st1 st2">220.10</text>
</g>
<g id="_x32_16.10">
	<text transform="matrix(1 0 0 1 317.323 35.433)" class="st3 st1 st2">216.10</text>
</g>
<g id="_x32_16.17">
	<text transform="matrix(1 0 0 1 317.323 109.4487)" class="st3 st1 st2">216.17</text>
</g>
<g id="_x32_16.22">
	<text transform="matrix(1 0 0 1 317.323 191.3388)" class="st3 st1 st2">216.22</text>
</g>
<g id="_x32_17.15">
	<text transform="matrix(1 0 0 1 317.323 273.622)" class="st3 st1 st2">217.15</text>
</g>
<g id="_x32_17.25">
	<text transform="matrix(1 0 0 1 317.323 353.1494)" class="st3 st1 st2">217.25</text>
</g>
<g id="_x32_17.30">
	<text transform="matrix(1 0 0 1 317.323 450.787)" class="st3 st1 st2">217.30</text>
</g>
</svg>
