<?xml version="1.0" encoding="UTF-8"?>
<!-- Generator: Adobe Illustrator 24.3.0, SVG Export Plug-In . SVG Version: 6.00 Build 0)  -->
<svg xmlns="http://www.w3.org/2000/svg" xmlns:xlink="http://www.w3.org/1999/xlink" version="1.1" x="0px" y="0px" viewBox="0 0 866.14 666.54" style="enable-background:new 0 0 866.14 666.54;" xml:space="preserve">
<style type="text/css">
	.st0{fill:#FFFFFF;}
	.st1{font-family:'Arial-BoldMT';}
	.st2{font-size:8px;}
</style>
<g id="_x32_64.22">
	<text transform="matrix(1 0 0 1 346.4565 66.5353)" class="st0 st1 st2">264.22</text>
</g>
<g id="_x32_64.27">
	<text transform="matrix(1 0 0 1 346.4565 151.1813)" class="st0 st1 st2">264.27</text>
</g>
<g id="_x32_65.4">
	<text transform="matrix(1 0 0 1 346.4565 231.4963)" class="st0 st1 st2">265.4</text>
</g>
<g id="_x32_65.14">
	<text transform="matrix(1 0 0 1 346.4565 328.3464)" class="st0 st1 st2">265.14</text>
</g>
<g id="_x32_65.22">
	<text transform="matrix(1 0 0 1 346.4565 421.654)" class="st0 st1 st2">265.22</text>
</g>
<g id="_x32_65.27">
	<text transform="matrix(1 0 0 1 346.4565 510.6296)" class="st0 st1 st2">265.27</text>
</g>
<g id="_x32_62.13">
	<text transform="matrix(1 0 0 1 114.5668 83.4645)" class="st1 st2">262.13</text>
</g>
<g id="_x32_62.18">
	<text transform="matrix(1 0 0 1 114.5668 165.3542)" class="st1 st2">262.18</text>
</g>
<g id="_x32_62.25">
	<text transform="matrix(1 0 0 1 114.5668 240.945)" class="st1 st2">262.25</text>
</g>
<g id="_x32_63.5">
	<text transform="matrix(1 0 0 1 114.5668 344.8815)" class="st1 st2">263.5</text>
</g>
<g id="_x32_63.13">
	<text transform="matrix(1 0 0 1 114.5668 442.1257)" class="st1 st2">263.13</text>
</g>
<g id="_x32_63.18">
	<text transform="matrix(1 0 0 1 114.5668 532.6774)" class="st1 st2">263.18</text>
</g>
<g id="_x32_67.2">
	<text transform="matrix(1 0 0 1 757.4799 86.2204)" class="st1 st2">267.2</text>
</g>
<g id="_x32_67.6">
	<text transform="matrix(1 0 0 1 757.4799 161.4172)" class="st0 st1 st2">267.6</text>
</g>
<g id="_x32_67.14">
	<text transform="matrix(1 0 0 1 757.4799 249.6061)" class="st0 st1 st2">267.14</text>
</g>
<g id="_x32_67.24">
	<text transform="matrix(1 0 0 1 757.4799 352.362)" class="st0 st1 st2">267.24</text>
</g>
<g id="_x32_68.1">
	<text transform="matrix(1 0 0 1 757.4799 440.945)" class="st0 st1 st2">268.1</text>
</g>
<g id="_x32_68.6">
	<text transform="matrix(1 0 0 1 745.6694 530.3151)" class="st1 st2">268.6</text>
</g>
</svg>
