<?xml version="1.0" encoding="UTF-8"?>
<!-- Generator: Adobe Illustrator 22.1.0, SVG Export Plug-In . SVG Version: 6.00 Build 0)  -->
<svg xmlns="http://www.w3.org/2000/svg" xmlns:xlink="http://www.w3.org/1999/xlink" version="1.1" x="0px" y="0px" viewBox="0 0 803.1 570.9" style="enable-background:new 0 0 803.1 570.9;" xml:space="preserve">
<style type="text/css">
	.st0{font-family:'Arial-BoldMT';}
	.st1{font-size:8px;}
	.st2{fill:#FFFFFF;}
	.st3{fill:#010101;}
</style>
<g id="_x32_07.4">
	<text transform="matrix(1 0 0 1 31.2993 66.5117)" class="st0 st1">207.4</text>
</g>
<g id="_x32_07.11">
	<text transform="matrix(1 0 0 1 31.2993 159.8189)" class="st0 st1">207.11</text>
</g>
<g id="_x32_07.16">
	<text transform="matrix(1 0 0 1 31.2993 242.1026)" class="st0 st1">207.16</text>
</g>
<g id="_x32_08.9">
	<text transform="matrix(1 0 0 1 31.2993 330.6846)" class="st0 st1">208.9</text>
</g>
<g id="_x32_08.19">
	<text transform="matrix(1 0 0 1 31.2993 411)" class="st0 st1">208.19</text>
</g>
<g id="_x32_08.25">
	<text transform="matrix(1 0 0 1 31.2993 499.9766)" class="st0 st1">208.25</text>
</g>
<g id="_x32_11.23">
	<text transform="matrix(1 0 0 1 667.9136 76.3521)" class="st0 st1">211.23</text>
</g>
<g id="_x32_11.30_1_">
	<text transform="matrix(1 0 0 1 667.9136 155.8799)" class="st0 st1">211.30</text>
</g>
<g id="_x32_11.30">
	<text transform="matrix(1 0 0 1 684.4487 249.9741)" class="st2 st0 st1">211.30</text>
</g>
<g id="_x32_12.28">
	<text transform="matrix(1 0 0 1 684.4487 337.7696)" class="st2 st0 st1">212.28</text>
</g>
<g id="_x32_13.8">
	<text transform="matrix(1 0 0 1 684.4487 405.8799)" class="st2 st0 st1">213.8</text>
</g>
<g id="_x32_13.14">
	<text transform="matrix(1 0 0 1 684.4487 499.9746)" class="st3 st0 st1">213.14</text>
</g>
</svg>
