<?xml version="1.0" encoding="UTF-8"?>
<!-- Generator: Adobe Illustrator 24.3.0, SVG Export Plug-In . SVG Version: 6.00 Build 0)  -->
<svg xmlns="http://www.w3.org/2000/svg" xmlns:xlink="http://www.w3.org/1999/xlink" version="1.1" x="0px" y="0px" viewBox="0 0 866.14 938.58" style="enable-background:new 0 0 866.14 938.58;" xml:space="preserve">
<style type="text/css">
	.st0{fill:#FFFFFF;}
	.st1{font-family:'Arial-BoldMT';}
	.st2{font-size:8px;}
</style>
<g id="_x32_02.21">
	<text transform="matrix(1 0 0 1 334.9409 68.3075)" class="st0 st1 st2">202.21</text>
</g>
<g id="_x32_02.28">
	<text transform="matrix(1 0 0 1 334.9409 155.7089)" class="st0 st1 st2">202.28</text>
</g>
<g id="_x32_03.10">
	<text transform="matrix(1 0 0 1 334.9409 241.5355)" class="st0 st1 st2">203.10</text>
</g>
<g id="_x32_03.16">
	<text transform="matrix(1 0 0 1 334.9409 350.9843)" class="st0 st1 st2">203.16</text>
</g>
<g id="_x32_03.28">
	<text transform="matrix(1 0 0 1 334.9409 537.9921)" class="st0 st1 st2">203.28</text>
</g>
<g id="_x32_04.6">
	<text transform="matrix(1 0 0 1 334.9409 675.788)" class="st0 st1 st2">204.6</text>
</g>
<g id="_x32_04.14">
	<text transform="matrix(1 0 0 1 334.9409 765.5516)" class="st0 st1 st2">204.14</text>
</g>
<g id="_x32_00.12">
	<text transform="matrix(1 0 0 1 101.9687 86.1835)" class="st1 st2">200.12</text>
</g>
<g id="_x32_01.2">
	<text transform="matrix(1 0 0 1 101.9687 255.0809)" class="st1 st2">201.2</text>
</g>
<g id="_x32_00.19">
	<text transform="matrix(1 0 0 1 101.9687 165.7108)" class="st0 st1 st2">200.19</text>
</g>
<g id="_x32_01.7">
	<text transform="matrix(1 0 0 1 101.9687 364.9237)" class="st0 st1 st2">201.7</text>
</g>
<g id="_x32_01.18">
	<text transform="matrix(1 0 0 1 101.9687 557.8368)" class="st0 st1 st2">201.18</text>
</g>
<g id="_x32_01.26">
	<text transform="matrix(1 0 0 1 101.9687 695.2382)" class="st0 st1 st2">201.26</text>
</g>
<g id="_x32_02.4">
	<text transform="matrix(1 0 0 1 101.9687 790.12)" class="st0 st1 st2">202.4</text>
</g>
<g id="_x32_05.2">
	<text transform="matrix(1 0 0 1 772.0473 102.953)" class="st1 st2">205.2</text>
</g>
<g id="_x32_05.9">
	<text transform="matrix(1 0 0 1 772.0473 176.9686)" class="st1 st2">205.9</text>
</g>
<g id="_x32_05.22">
	<text transform="matrix(1 0 0 1 772.0473 259.2523)" class="st1 st2">205.22</text>
</g>
<g id="_x32_05.27">
	<text transform="matrix(1 0 0 1 772.0473 373.4252)" class="st1 st2">205.27</text>
</g>
<g id="_x32_06.7">
	<text transform="matrix(1 0 0 1 772.0473 563.5829)" class="st1 st2">206.7</text>
</g>
<g id="_x32_06.15">
	<text transform="matrix(1 0 0 1 772.0473 696.6542)" class="st1 st2">206.15</text>
</g>
<g id="_x32_06.23">
	<text transform="matrix(1 0 0 1 772.0473 782.0868)" class="st1 st2">206.23</text>
</g>
</svg>
