<?xml version="1.0" encoding="UTF-8"?>
<!-- Generator: Adobe Illustrator 22.1.0, SVG Export Plug-In . SVG Version: 6.00 Build 0)  -->
<svg xmlns="http://www.w3.org/2000/svg" xmlns:xlink="http://www.w3.org/1999/xlink" version="1.1" x="0px" y="0px" viewBox="0 0 866.1 615" style="enable-background:new 0 0 866.1 615;" xml:space="preserve">
<style type="text/css">
	.st0{fill:#FFFEFE;}
	.st1{font-family:'Arial-BoldMT';}
	.st2{font-size:8px;}
	.st3{fill:#FFFFFF;}
</style>
<g id="_x31_74.22">
	<text transform="matrix(1 0 0 1 335.3569 61.7733)" class="st0 st1 st2">174.22</text>
</g>
<g id="_x31_74.26">
	<text transform="matrix(1 0 0 1 335.3569 143.663)" class="st0 st1 st2">174.26</text>
</g>
<g id="_x31_75.6">
	<text transform="matrix(1 0 0 1 335.3569 231.8519)" class="st0 st1 st2">175.6</text>
</g>
<g id="_x31_75.14">
	<text transform="matrix(1 0 0 1 335.3569 320.0414)" class="st0 st1 st2">175.14</text>
</g>
<g id="_x31_75.22">
	<text transform="matrix(1 0 0 1 335.3569 422.4027)" class="st0 st1 st2">175.22</text>
</g>
<g id="_x31_75.27">
	<text transform="matrix(1 0 0 1 335.3569 512.1674)" class="st0 st1 st2">175.27</text>
</g>
<g id="_x31_72.12">
	<text transform="matrix(1 0 0 1 77.7558 83.2157)" class="st3 st1 st2">172.12</text>
</g>
<g id="_x31_72.17">
	<text transform="matrix(1 0 0 1 91.1416 164.3183)" class="st1 st2">172.17</text>
</g>
<g id="_x31_72.24">
	<text transform="matrix(1 0 0 1 91.1416 246.6019)" class="st1 st2">172.24</text>
</g>
<g id="_x31_73.4">
	<text transform="matrix(1 0 0 1 91.1416 335.9721)" class="st1 st2">173.4</text>
</g>
<g id="_x31_73.12">
	<text transform="matrix(1 0 0 1 91.1416 437.5463)" class="st1 st2">173.12</text>
</g>
<g id="_x31_73.17">
	<text transform="matrix(1 0 0 1 77.7558 531.641)" class="st3 st1 st2">173.17</text>
</g>
<g id="_x31_77.1">
	<text transform="matrix(1 0 0 1 761.4174 79.5277)" class="st1 st2">177.1</text>
</g>
<g id="_x31_77.6">
	<text transform="matrix(1 0 0 1 761.4174 166.5355)" class="st1 st2">177.6</text>
</g>
<g id="_x31_77.13">
	<text transform="matrix(1 0 0 1 761.4174 242.1259)" class="st1 st2">177.13</text>
</g>
<g id="_x31_77.24">
	<text transform="matrix(1 0 0 1 761.4174 351.1811)" class="st1 st2">177.24</text>
</g>
<g id="_x31_78.1">
	<text transform="matrix(1 0 0 1 761.4174 442.5199)" class="st1 st2">178.1</text>
</g>
<g id="_x31_78.6">
	<text transform="matrix(1 0 0 1 761.4174 528.7406)" class="st1 st2">178.6</text>
</g>
</svg>
