<?xml version="1.0" encoding="UTF-8"?>
<!-- Generator: Adobe Illustrator 24.3.0, SVG Export Plug-In . SVG Version: 6.00 Build 0)  -->
<svg xmlns="http://www.w3.org/2000/svg" xmlns:xlink="http://www.w3.org/1999/xlink" version="1.1" x="0px" y="0px" viewBox="0 0 866.14 590.55" style="enable-background:new 0 0 866.14 590.55;" xml:space="preserve">
<style type="text/css">
	.st0{font-family:'Arial-BoldMT';}
	.st1{font-size:8px;}
	.st2{fill:#FEFEFE;}
</style>
<g id="_x32_55.18">
	<text transform="matrix(1 0 0 1 123.622 68.5042)" class="st0 st1">255.18</text>
</g>
<g id="_x32_60.4">
	<text transform="matrix(1 0 0 1 788.1889 68.5042)" class="st0 st1">260.4</text>
</g>
<g id="_x32_60.9">
	<text transform="matrix(1 0 0 1 788.1889 157.0867)" class="st0 st1">260.9</text>
</g>
<g id="_x32_60.16">
	<text transform="matrix(1 0 0 1 788.1889 242.5198)" class="st0 st1">260.16</text>
</g>
<g id="_x32_61.6">
	<text transform="matrix(1 0 0 1 788.1889 349.9998)" class="st0 st1">261.6</text>
</g>
<g id="_x32_57.27">
	<text transform="matrix(1 0 0 1 370.4726 49.6062)" class="st2 st0 st1">257.27</text>
</g>
<g id="_x32_57.32">
	<text transform="matrix(1 0 0 1 370.4726 139.3699)" class="st2 st0 st1">257.32</text>
</g>
<g id="_x32_58.7">
	<text transform="matrix(1 0 0 1 370.4726 227.1653)" class="st2 st0 st1">258.7</text>
</g>
<g id="_x32_58.27">
	<text transform="matrix(1 0 0 1 370.4726 327.5593)" class="st2 st0 st1">258.27</text>
</g>
<g id="_x32_55.23">
	<text transform="matrix(1 0 0 1 123.622 153.9368)" class="st2 st0 st1">255.23</text>
</g>
<g id="_x32_55.30">
	<text transform="matrix(1 0 0 1 123.622 242.1257)" class="st2 st0 st1">255.30</text>
</g>
<g id="_x32_56.21">
	<text transform="matrix(1 0 0 1 123.622 357.0867)" class="st2 st0 st1">256.21</text>
</g>
</svg>
