<?xml version="1.0" encoding="UTF-8"?>
<!-- Generator: Adobe Illustrator 24.3.0, SVG Export Plug-In . SVG Version: 6.00 Build 0)  -->
<svg xmlns="http://www.w3.org/2000/svg" xmlns:xlink="http://www.w3.org/1999/xlink" version="1.1" x="0px" y="0px" viewBox="0 0 866.14 622.44" style="enable-background:new 0 0 866.14 622.44;" xml:space="preserve">
<style type="text/css">
	.st0{fill:#FFFFFF;}
	.st1{font-family:'Arial-BoldMT';}
	.st2{font-size:8px;}
</style>
<g id="_x32_30.1">
	<text transform="matrix(1 0 0 1 347.2441 48.327)" class="st0 st1 st2">230.1</text>
</g>
<g id="_x32_30.8">
	<text transform="matrix(1 0 0 1 347.2441 136.5159)" class="st0 st1 st2">230.8</text>
</g>
<g id="_x32_30.13">
	<text transform="matrix(1 0 0 1 347.2441 219.9803)" class="st0 st1 st2">230.13</text>
</g>
<g id="_x32_31.5">
	<text transform="matrix(1 0 0 1 347.2441 301.4764)" class="st0 st1 st2">231.5</text>
</g>
<g id="_x32_31.15">
	<text transform="matrix(1 0 0 1 347.2441 384.9407)" class="st0 st1 st2">231.15</text>
</g>
<g id="_x32_31.20">
	<text transform="matrix(1 0 0 1 347.2441 473.1302)" class="st0 st1 st2">231.20</text>
</g>
<g id="_x32_27.22">
	<text transform="matrix(1 0 0 1 120.0786 61.7127)" class="st1 st2">227.22</text>
</g>
<g id="_x32_28.4">
	<text transform="matrix(1 0 0 1 120.0786 233.366)" class="st1 st2">228.4</text>
</g>
<g id="_x32_28.27">
	<text transform="matrix(1 0 0 1 120.0786 321.555)" class="st1 st2">228.27</text>
</g>
<g id="_x32_32.8">
	<text transform="matrix(1 0 0 1 779.5278 66.0433)" class="st1 st2">232.8</text>
</g>
<g id="_x32_32.15">
	<text transform="matrix(1 0 0 1 779.5278 158.5633)" class="st1 st2">232.15</text>
</g>
<g id="_x32_32.20">
	<text transform="matrix(1 0 0 1 779.5278 241.2401)" class="st1 st2">232.20</text>
</g>
<g id="_x32_33.12">
	<text transform="matrix(1 0 0 1 779.1342 321.1614)" class="st1 st2">233.12</text>
</g>
<g id="_x32_33.22">
	<text transform="matrix(1 0 0 1 779.1342 407.7757)" class="st1 st2">233.22</text>
</g>
<g id="_x32_33.28">
	<text transform="matrix(1 0 0 1 779.1342 487.6966)" class="st1 st2">233.28</text>
</g>
<g id="_x32_29.7">
	<text transform="matrix(1 0 0 1 120.0786 403.0511)" class="st1 st2">229.7</text>
</g>
<g id="_x32_29.13">
	<text transform="matrix(1 0 0 1 120.0786 484.9407)" class="st0 st1 st2">229.13</text>
</g>
<g id="_x32_27.29">
	<text transform="matrix(1 0 0 1 120.0786 155.8069)" class="st0 st1 st2">227.29</text>
</g>
</svg>
