<?xml version="1.0" encoding="UTF-8"?>
<!-- Generator: Adobe Illustrator 22.1.0, SVG Export Plug-In . SVG Version: 6.00 Build 0)  -->
<svg xmlns="http://www.w3.org/2000/svg" xmlns:xlink="http://www.w3.org/1999/xlink" version="1.1" x="0px" y="0px" viewBox="0 0 2100 2833" style="enable-background:new 0 0 2100 2833;" xml:space="preserve">
<style type="text/css">
	.st0{fill:#FFFFFF;}
	.st1{font-family:'Arial-BoldMT';}
	.st2{font-size:24px;}
</style>
<g id="_x37_0.15">
	<text transform="matrix(1 0 0 1 85.668 482.4849)" class="st0 st1 st2">70.15</text>
</g>
<g id="_x37_1.1">
	<text transform="matrix(1 0 0 1 88.314 1036.8569)" class="st0 st1 st2">71.1</text>
</g>
<g id="_x36_9.29">
	<text transform="matrix(1 0 0 1 93.6064 1255.1353)" class="st0 st1 st2">69.29</text>
</g>
<g id="_x37_1.7">
	<text transform="matrix(1 0 0 1 97.5757 1536.9521)" class="st0 st1 st2">71.7</text>
</g>
<g id="_x37_1.15">
	<text transform="matrix(1 0 0 1 102.8682 1824.0615)" class="st0 st1 st2">71.15</text>
</g>
<g id="_x37_2.1">
	<text transform="matrix(1 0 0 1 1960.6621 320.4136)" class="st1 st2">72.1</text>
</g>
<g id="_x37_2.15">
	<text transform="matrix(1 0 0 1 1960.6621 811.4282)" class="st1 st2">72.15</text>
</g>
<g id="_x37_3.1">
	<text transform="matrix(1 0 0 1 1960.6621 1376.5586)" class="st1 st2">73.1</text>
</g>
<g id="_x37_5.4">
	<text transform="matrix(1 0 0 1 1960.6621 1765.665)" class="st1 st2">75.4</text>
</g>
<g id="_x37_5.15">
	<text transform="matrix(1 0 0 1 1960.6621 2152.124)" class="st1 st2">75.15</text>
</g>
<g id="_x37_0.8">
	<text transform="matrix(1 0 0 1 94.9297 235.0371)" class="st0 st1 st2">70.8</text>
</g>
</svg>
