<?xml version="1.0" encoding="UTF-8"?>
<!-- Generator: Adobe Illustrator 22.1.0, SVG Export Plug-In . SVG Version: 6.00 Build 0)  -->
<svg xmlns="http://www.w3.org/2000/svg" xmlns:xlink="http://www.w3.org/1999/xlink" version="1.1" x="0px" y="0px" viewBox="0 0 857.1 887" style="enable-background:new 0 0 857.1 887;" xml:space="preserve">
<style type="text/css">
	.st0{font-family:'Arial-BoldMT';}
	.st1{font-size:8px;}
	.st2{fill:#FFFEFE;}
	.st3{fill:#FFFFFF;}
</style>
<g id="_x32_34.24">
	<text transform="matrix(1 0 0 1 25.7273 105.7745)" class="st0 st1">234.24</text>
</g>
<g id="_x32_35.1">
	<text transform="matrix(1 0 0 1 25.7273 173.8848)" class="st0 st1">235.1</text>
</g>
<g id="_x32_35.14">
	<text transform="matrix(1 0 0 1 25.7273 256.1681)" class="st0 st1">235.14</text>
</g>
<g id="_x32_35.19">
	<text transform="matrix(1 0 0 1 25.7273 362.8609)" class="st0 st1">235.19</text>
</g>
<g id="_x32_35.29">
	<text transform="matrix(1 0 0 1 25.7273 532.5464)" class="st0 st1">235.29</text>
</g>
<g id="_x32_36.7">
	<text transform="matrix(1 0 0 1 25.7273 693.1763)" class="st0 st1">236.7</text>
</g>
<g id="_x32_36.15">
	<text transform="matrix(1 0 0 1 25.7273 775.4595)" class="st0 st1">236.15</text>
</g>
<g id="_x32_39.12">
	<text transform="matrix(1 0 0 1 701.967 91.3385)" class="st2 st0 st1">239.12</text>
</g>
<g id="_x32_40.2">
	<text transform="matrix(1 0 0 1 701.967 250.3936)" class="st2 st0 st1">240.2</text>
</g>
<g id="_x32_40.7">
	<text transform="matrix(1 0 0 1 701.967 364.567)" class="st2 st0 st1">240.7</text>
</g>
<g id="_x32_39.20">
	<text transform="matrix(1 0 0 1 701.967 182.2833)" class="st0 st1">239.20</text>
</g>
<g id="_x32_40.18">
	<text transform="matrix(1 0 0 1 696.8489 534.6461)" class="st0 st1">240.18</text>
</g>
<g id="_x32_40.26">
	<text transform="matrix(1 0 0 1 696.8489 692.5201)" class="st0 st1">240.26</text>
</g>
<g id="_x32_41.5">
	<text transform="matrix(1 0 0 1 696.8489 786.2203)" class="st0 st1">241.5</text>
</g>
<g id="_x32_37.3">
	<text transform="matrix(1 0 0 1 266.5354 80.9058)" class="st3 st0 st1">237.3</text>
</g>
<g id="_x32_37.10">
	<text transform="matrix(1 0 0 1 266.5354 158.0709)" class="st3 st0 st1">237.10</text>
</g>
<g id="_x32_37.22">
	<text transform="matrix(1 0 0 1 266.5354 239.961)" class="st3 st0 st1">237.22</text>
</g>
<g id="_x32_37.28">
	<text transform="matrix(1 0 0 1 266.5354 344.2916)" class="st3 st0 st1">237.28</text>
</g>
<g id="_x32_38.8">
	<text transform="matrix(1 0 0 1 266.5354 506.1021)" class="st3 st0 st1">238.8</text>
</g>
<g id="_x32_38.16">
	<text transform="matrix(1 0 0 1 266.5354 673.4254)" class="st3 st0 st1">238.16</text>
</g>
<g id="_x32_38.24">
	<text transform="matrix(1 0 0 1 266.5354 761.2203)" class="st3 st0 st1">238.24</text>
</g>
</svg>
