<?xml version="1.0" encoding="UTF-8"?>
<!-- Generator: Adobe Illustrator 22.1.0, SVG Export Plug-In . SVG Version: 6.00 Build 0)  -->
<svg xmlns="http://www.w3.org/2000/svg" xmlns:xlink="http://www.w3.org/1999/xlink" version="1.1" x="0px" y="0px" viewBox="0 0 794.1 881.1" style="enable-background:new 0 0 794.1 881.1;" xml:space="preserve">
<style type="text/css">
	.st0{font-family:'Arial-BoldMT';}
	.st1{font-size:8px;}
	.st2{fill:#FFFFFF;}
</style>
<g id="_x31_98.3">
	<text transform="matrix(1 0 0 1 683.1926 87.7954)" class="st0 st1">198.3</text>
</g>
<g id="_x31_98.23">
	<text transform="matrix(1 0 0 1 683.1926 257.4804)" class="st0 st1">198.23</text>
</g>
<g id="_x31_98.9">
	<text transform="matrix(1 0 0 1 683.1926 166.9292)" class="st2 st0 st1">198.9</text>
</g>
<g id="_x31_98.29">
	<text transform="matrix(1 0 0 1 683.1926 372.0473)" class="st2 st0 st1">198.29</text>
</g>
<g id="_x31_99.9">
	<text transform="matrix(1 0 0 1 683.1926 527.9531)" class="st2 st0 st1">199.9</text>
</g>
<g id="_x31_99.17">
	<text transform="matrix(1 0 0 1 683.1926 688.1894)" class="st2 st0 st1">199.17</text>
</g>
<g id="_x31_99.25">
	<text transform="matrix(1 0 0 1 683.1926 777.9531)" class="st2 st0 st1">199.25</text>
</g>
<g id="_x31_95.23">
	<text transform="matrix(1 0 0 1 269.5164 70.2753)" class="st2 st0 st1">195.23</text>
</g>
<g id="_x31_95.30">
	<text transform="matrix(1 0 0 1 269.5164 154.5278)" class="st2 st0 st1">195.30</text>
</g>
<g id="_x31_96.13">
	<text transform="matrix(1 0 0 1 269.5164 234.8427)" class="st2 st0 st1">196.13</text>
</g>
<g id="_x31_96.18">
	<text transform="matrix(1 0 0 1 269.5164 342.3227)" class="st2 st0 st1">196.18</text>
</g>
<g id="_x31_96.28">
	<text transform="matrix(1 0 0 1 269.5164 506.1025)" class="st2 st0 st1">196.28</text>
</g>
<g id="_x31_97.6">
	<text transform="matrix(1 0 0 1 269.5164 666.7324)" class="st2 st0 st1">197.6</text>
</g>
<g id="_x31_97.14">
	<text transform="matrix(1 0 0 1 269.5164 758.8583)" class="st2 st0 st1">197.14</text>
</g>
<g id="_x31_93.14">
	<text transform="matrix(1 0 0 1 24.1541 97.6376)" class="st0 st1">193.14</text>
</g>
<g id="_x31_93.21">
	<text transform="matrix(1 0 0 1 24.1541 171.2597)" class="st0 st1">193.21</text>
</g>
<g id="_x31_94.4">
	<text transform="matrix(1 0 0 1 24.1541 251.5747)" class="st0 st1">194.4</text>
</g>
<g id="_x31_94.9">
	<text transform="matrix(1 0 0 1 24.1541 355.9057)" class="st0 st1">194.9</text>
</g>
<g id="_x31_94.12">
	<text transform="matrix(1 0 0 1 24.1541 400.3935)" class="st0 st1">194.12</text>
</g>
<g id="_x31_94.19">
	<text transform="matrix(1 0 0 1 24.1541 522.8349)" class="st0 st1">194.19</text>
</g>
<g id="_x31_94.27">
	<text transform="matrix(1 0 0 1 24.1541 681.1025)" class="st0 st1">194.27</text>
</g>
<g id="_x31_95.5">
	<text transform="matrix(1 0 0 1 24.1541 770.8661)" class="st0 st1">195.5</text>
</g>
</svg>
