<?xml version="1.0" encoding="UTF-8"?>
<!-- Generator: Adobe Illustrator 22.1.0, SVG Export Plug-In . SVG Version: 6.00 Build 0)  -->
<svg xmlns="http://www.w3.org/2000/svg" xmlns:xlink="http://www.w3.org/1999/xlink" version="1.1" x="0px" y="0px" viewBox="0 0 818.1 542.1" style="enable-background:new 0 0 818.1 542.1;" xml:space="preserve">
<style type="text/css">
	.st0{fill:#FEFEFE;}
	.st1{font-family:'Arial-BoldMT';}
	.st2{font-size:8px;}
	.st3{fill:#040404;}
	.st4{fill:#FFFFFF;}
</style>
<g id="_x31_86.9">
	<text transform="matrix(1 0 0 1 99.9998 74.8033)" class="st0 st1 st2">186.9</text>
</g>
<g id="_x31_86.14">
	<text transform="matrix(1 0 0 1 99.9998 151.9683)" class="st3 st1 st2">186.14</text>
</g>
<g id="_x31_86.22">
	<text transform="matrix(1 0 0 1 99.9998 235.8267)" class="st3 st1 st2">186.22</text>
</g>
<g id="_x31_87.12">
	<text transform="matrix(1 0 0 1 99.9998 340.9444)" class="st3 st1 st2">187.12</text>
</g>
<g id="_x31_87.15">
	<text transform="matrix(1 0 0 1 99.9998 382.2833)" class="st4 st1 st2">187.15</text>
</g>
<g id="_x31_88.18">
	<text transform="matrix(1 0 0 1 332.6771 56.2994)" class="st4 st1 st2">188.18</text>
</g>
<g id="_x31_88.23">
	<text transform="matrix(1 0 0 1 332.6771 134.6456)" class="st4 st1 st2">188.23</text>
</g>
<g id="_x31_88.30">
	<text transform="matrix(1 0 0 1 332.6771 208.2676)" class="st4 st1 st2">188.30</text>
</g>
<g id="_x31_89.20">
	<text transform="matrix(1 0 0 1 332.6771 318.8975)" class="st4 st1 st2">189.20</text>
</g>
<g id="_x31_90.27">
	<text transform="matrix(1 0 0 1 760.2366 70.8663)" class="st1 st2">190.27</text>
</g>
<g id="_x31_91.8">
	<text transform="matrix(1 0 0 1 760.2366 155.9053)" class="st1 st2">191.8</text>
</g>
<g id="_x31_91.15">
	<text transform="matrix(1 0 0 1 760.2366 220.8663)" class="st1 st2">191.15</text>
</g>
<g id="_x31_92.5">
	<text transform="matrix(1 0 0 1 760.2366 335.0391)" class="st1 st2">192.5</text>
</g>
<g id="_x31_92.8">
	<text transform="matrix(1 0 0 1 760.2366 373.6221)" class="st1 st2">192.8</text>
</g>
</svg>
