<?xml version="1.0" encoding="UTF-8"?>
<!-- Generator: Adobe Illustrator 24.3.0, SVG Export Plug-In . SVG Version: 6.00 Build 0)  -->
<svg xmlns="http://www.w3.org/2000/svg" xmlns:xlink="http://www.w3.org/1999/xlink" version="1.1" x="0px" y="0px" viewBox="0 0 866.14 666.54" style="enable-background:new 0 0 866.14 666.54;" xml:space="preserve">
<style type="text/css">
	.st0{fill:#FEFEFE;}
	.st1{font-family:'Arial-BoldMT';}
	.st2{font-size:8px;}
	.st3{fill:#040404;}
	.st4{fill:#FFFFFF;}
</style>
<g id="_x31_86.9">
	<text transform="matrix(1 0 0 1 100 147.6379)" class="st0 st1 st2">186.9</text>
</g>
<g id="_x31_86.14">
	<text transform="matrix(1 0 0 1 100 224.8029)" class="st3 st1 st2">186.14</text>
</g>
<g id="_x31_86.22">
	<text transform="matrix(1 0 0 1 100 308.6613)" class="st3 st1 st2">186.22</text>
</g>
<g id="_x31_87.12">
	<text transform="matrix(1 0 0 1 100 413.78)" class="st3 st1 st2">187.12</text>
</g>
<g id="_x31_87.15">
	<text transform="matrix(1 0 0 1 100 455.1179)" class="st4 st1 st2">187.15</text>
</g>
<g id="_x31_88.18">
	<text transform="matrix(1 0 0 1 332.6772 129.134)" class="st4 st1 st2">188.18</text>
</g>
<g id="_x31_88.23">
	<text transform="matrix(1 0 0 1 332.6772 207.4802)" class="st4 st1 st2">188.23</text>
</g>
<g id="_x31_88.30">
	<text transform="matrix(1 0 0 1 332.6772 281.1022)" class="st4 st1 st2">188.30</text>
</g>
<g id="_x31_89.20">
	<text transform="matrix(1 0 0 1 332.6772 391.7321)" class="st4 st1 st2">189.20</text>
</g>
<g id="_x31_90.27">
	<text transform="matrix(1 0 0 1 760.2358 143.7009)" class="st1 st2">190.27</text>
</g>
<g id="_x31_91.8">
	<text transform="matrix(1 0 0 1 760.2358 228.7399)" class="st1 st2">191.8</text>
</g>
<g id="_x31_91.15">
	<text transform="matrix(1 0 0 1 760.2358 293.7009)" class="st1 st2">191.15</text>
</g>
<g id="_x31_92.5">
	<text transform="matrix(1 0 0 1 760.2358 407.8737)" class="st1 st2">192.5</text>
</g>
<g id="_x31_92.8">
	<text transform="matrix(1 0 0 1 760.2358 446.4567)" class="st1 st2">192.8</text>
</g>
</svg>
