<?xml version="1.0" encoding="UTF-8"?>
<!-- Generator: Adobe Illustrator 22.1.0, SVG Export Plug-In . SVG Version: 6.00 Build 0)  -->
<svg xmlns="http://www.w3.org/2000/svg" xmlns:xlink="http://www.w3.org/1999/xlink" version="1.1" x="0px" y="0px" viewBox="0 0 771.7 570.9" style="enable-background:new 0 0 771.7 570.9;" xml:space="preserve">
<style type="text/css">
	.st0{fill:#FFFFFF;}
	.st1{font-family:'Arial-BoldMT';}
	.st2{font-size:8px;}
</style>
<g id="_x32_30.1">
	<text transform="matrix(1 0 0 1 311.811 48.3267)" class="st0 st1 st2">230.1</text>
</g>
<g id="_x32_30.8">
	<text transform="matrix(1 0 0 1 311.811 136.5156)" class="st0 st1 st2">230.8</text>
</g>
<g id="_x32_30.13">
	<text transform="matrix(1 0 0 1 311.811 219.9805)" class="st0 st1 st2">230.13</text>
</g>
<g id="_x32_31.5">
	<text transform="matrix(1 0 0 1 311.811 301.4766)" class="st0 st1 st2">231.5</text>
</g>
<g id="_x32_31.15">
	<text transform="matrix(1 0 0 1 311.811 384.9414)" class="st0 st1 st2">231.15</text>
</g>
<g id="_x32_31.20">
	<text transform="matrix(1 0 0 1 311.811 473.1299)" class="st0 st1 st2">231.20</text>
</g>
<g id="_x32_27.22">
	<text transform="matrix(1 0 0 1 84.6455 61.7129)" class="st1 st2">227.22</text>
</g>
<g id="_x32_28.4">
	<text transform="matrix(1 0 0 1 84.6455 233.3662)" class="st1 st2">228.4</text>
</g>
<g id="_x32_28.27">
	<text transform="matrix(1 0 0 1 84.6455 321.5557)" class="st1 st2">228.27</text>
</g>
<g id="_x32_32.8">
	<text transform="matrix(1 0 0 1 744.0942 66.0435)" class="st1 st2">232.8</text>
</g>
<g id="_x32_32.15">
	<text transform="matrix(1 0 0 1 744.0942 158.563)" class="st1 st2">232.15</text>
</g>
<g id="_x32_32.20">
	<text transform="matrix(1 0 0 1 744.0942 241.2402)" class="st1 st2">232.20</text>
</g>
<g id="_x32_33.12">
	<text transform="matrix(1 0 0 1 743.7007 321.1612)" class="st1 st2">233.12</text>
</g>
<g id="_x32_33.22">
	<text transform="matrix(1 0 0 1 743.7007 407.7754)" class="st1 st2">233.22</text>
</g>
<g id="_x32_33.28">
	<text transform="matrix(1 0 0 1 743.7007 487.6973)" class="st1 st2">233.28</text>
</g>
<g id="_x32_29.7">
	<text transform="matrix(1 0 0 1 84.6455 403.0508)" class="st1 st2">229.7</text>
</g>
<g id="_x32_29.13">
	<text transform="matrix(1 0 0 1 84.6455 484.9414)" class="st0 st1 st2">229.13</text>
</g>
<g id="_x32_27.29">
	<text transform="matrix(1 0 0 1 84.6455 155.8071)" class="st0 st1 st2">227.29</text>
</g>
</svg>
