<?xml version="1.0" encoding="UTF-8"?>
<!-- Generator: Adobe Illustrator 22.1.0, SVG Export Plug-In . SVG Version: 6.00 Build 0)  -->
<svg xmlns="http://www.w3.org/2000/svg" xmlns:xlink="http://www.w3.org/1999/xlink" version="1.1" x="0px" y="0px" viewBox="0 0 866.1 615" style="enable-background:new 0 0 866.1 615;" xml:space="preserve">
<style type="text/css">
	.st0{fill:#FFFCFC;}
	.st1{font-family:'Arial-BoldMT';}
	.st2{font-size:8px;}
	.st3{fill:#0C0C0C;}
	.st4{fill:#FEFEFE;}
	.st5{fill:#FFFFFF;}
</style>
<g id="_x31_67.21">
	<text transform="matrix(1 0 0 1 337.2045 64.9608)" class="st0 st1 st2">167.21</text>
</g>
<g id="_x31_67.26">
	<text transform="matrix(1 0 0 1 337.2045 157.8739)" class="st0 st1 st2">167.26</text>
</g>
<g id="_x31_68.4">
	<text transform="matrix(1 0 0 1 337.2045 244.4882)" class="st0 st1 st2">168.4</text>
</g>
<g id="_x31_68.14">
	<text transform="matrix(1 0 0 1 337.2045 328.3461)" class="st0 st1 st2">168.14</text>
</g>
<g id="_x31_68.21">
	<text transform="matrix(1 0 0 1 337.2045 421.2602)" class="st0 st1 st2">168.21</text>
</g>
<g id="_x31_65.12">
	<text transform="matrix(1 0 0 1 93.2861 85.5751)" class="st3 st1 st2">165.12</text>
</g>
<g id="_x31_65.17">
	<text transform="matrix(1 0 0 1 93.2861 177.3075)" class="st3 st1 st2">165.17</text>
</g>
<g id="_x31_65.25">
	<text transform="matrix(1 0 0 1 93.2861 275.3388)" class="st3 st1 st2">165.25</text>
</g>
<g id="_x31_66.6">
	<text transform="matrix(1 0 0 1 93.2861 356.4408)" class="st3 st1 st2">166.6</text>
</g>
<g id="_x31_66.13">
	<text transform="matrix(1 0 0 1 93.2861 440.6928)" class="st3 st1 st2">166.13</text>
</g>
<g id="_x31_66.18">
	<text transform="matrix(1 0 0 1 93.2861 528.4886)" class="st3 st1 st2">166.18</text>
</g>
<g id="_x31_70.1">
	<text transform="matrix(1 0 0 1 779.9213 92.9135)" class="st4 st1 st2">170.1</text>
</g>
<g id="_x31_70.6">
	<text transform="matrix(1 0 0 1 779.9213 175.5907)" class="st3 st1 st2">170.6</text>
</g>
<g id="_x31_70.13">
	<text transform="matrix(1 0 0 1 779.9213 258.2675)" class="st3 st1 st2">170.13</text>
</g>
<g id="_x31_70.23">
	<text transform="matrix(1 0 0 1 779.9213 340.9447)" class="st3 st1 st2">170.23</text>
</g>
<g id="_x31_71.1">
	<text transform="matrix(1 0 0 1 779.9213 437.4018)" class="st3 st1 st2">171.1</text>
</g>
<g id="_x31_71.6">
	<text transform="matrix(1 0 0 1 788.976 528.3461)" class="st5 st1 st2">171.6</text>
</g>
</svg>
