<?xml version="1.0" encoding="UTF-8"?>
<!-- Generator: Adobe Illustrator 24.3.0, SVG Export Plug-In . SVG Version: 6.00 Build 0)  -->
<svg xmlns="http://www.w3.org/2000/svg" xmlns:xlink="http://www.w3.org/1999/xlink" version="1.1" x="0px" y="0px" viewBox="0 0 866.14 595.67" style="enable-background:new 0 0 866.14 595.67;" xml:space="preserve">
<style type="text/css">
	.st0{font-family:'Arial-BoldMT';}
	.st1{font-size:8px;}
	.st2{fill:#FFFFFF;}
	.st3{fill:#010101;}
</style>
<g id="_x32_20.28">
	<text transform="matrix(1 0 0 1 96.4565 48.425)" class="st0 st1">220.28</text>
</g>
<g id="_x32_21.5">
	<text transform="matrix(1 0 0 1 96.4565 128.3464)" class="st0 st1">221.5</text>
</g>
<g id="_x32_21.10">
	<text transform="matrix(1 0 0 1 96.4565 209.449)" class="st0 st1">221.10</text>
</g>
<g id="_x32_22.3">
	<text transform="matrix(1 0 0 1 96.4565 291.3386)" class="st0 st1">222.3</text>
</g>
<g id="_x32_22.13">
	<text transform="matrix(1 0 0 1 96.4565 386.2209)" class="st0 st1">222.13</text>
</g>
<g id="_x32_22.19">
	<text transform="matrix(1 0 0 1 96.4565 482.2834)" class="st0 st1">222.19</text>
</g>
<g id="_x32_25.13">
	<text transform="matrix(1 0 0 1 714.5668 46.8503)" class="st0 st1">225.13</text>
</g>
<g id="_x32_25.20">
	<text transform="matrix(1 0 0 1 714.5668 125.5906)" class="st2 st0 st1">225.20</text>
</g>
<g id="_x32_27.4">
	<text transform="matrix(1 0 0 1 714.5668 479.5276)" class="st2 st0 st1">227.4</text>
</g>
<g id="_x32_23.6-1">
	<text transform="matrix(1 0 0 1 314.9604 34.2522)" class="st2 st0 st1">223.6-1</text>
</g>
<g id="_x32_23.12">
	<text transform="matrix(1 0 0 1 314.9604 109.8425)" class="st2 st0 st1">223.12</text>
</g>
<g id="_x32_23.17">
	<text transform="matrix(1 0 0 1 314.9604 192.5198)" class="st2 st0 st1">223.17</text>
</g>
<g id="_x32_24.8">
	<text transform="matrix(1 0 0 1 316.5356 269.2912)" class="st2 st0 st1">224.8</text>
</g>
<g id="_x32_24.18">
	<text transform="matrix(1 0 0 1 316.5356 357.0862)" class="st2 st0 st1">224.18</text>
</g>
<g id="_x32_24.24">
	<text transform="matrix(1 0 0 1 316.5356 455.9055)" class="st2 st0 st1">224.24</text>
</g>
<g id="_x32_25.25">
	<text transform="matrix(1 0 0 1 714.5668 207.0867)" class="st3 st0 st1">225.25</text>
</g>
<g id="_x32_26.18">
	<text transform="matrix(1 0 0 1 714.5668 290.551)" class="st3 st0 st1">226.18</text>
</g>
<g id="_x32_26.28">
	<text transform="matrix(1 0 0 1 714.5668 375.5901)" class="st3 st0 st1">226.28</text>
</g>
</svg>
