<?xml version="1.0" encoding="UTF-8"?>
<!-- Generator: Adobe Illustrator 22.1.0, SVG Export Plug-In . SVG Version: 6.00 Build 0)  -->
<svg xmlns="http://www.w3.org/2000/svg" xmlns:xlink="http://www.w3.org/1999/xlink" version="1.1" x="0px" y="0px" viewBox="0 0 823.2 542.1" style="enable-background:new 0 0 823.2 542.1;" xml:space="preserve">
<style type="text/css">
	.st0{fill:#FEFEFE;}
	.st1{font-family:'Arial-BoldMT';}
	.st2{font-size:8px;}
	.st3{fill:#FFFFFF;}
</style>
<g id="_x32_50.28">
	<text transform="matrix(1 0 0 1 264.5667 54.3306)" class="st0 st1 st2">250.28</text>
</g>
<g id="_x32_51.3">
	<text transform="matrix(1 0 0 1 264.5667 137.7955)" class="st0 st1 st2">251.3</text>
</g>
<g id="_x32_51.11">
	<text transform="matrix(1 0 0 1 264.5667 216.1417)" class="st0 st1 st2">251.11</text>
</g>
<g id="_x32_52.1">
	<text transform="matrix(1 0 0 1 264.5667 299.6065)" class="st0 st1 st2">252.1</text>
</g>
<g id="_x32_48.18">
	<text transform="matrix(1 0 0 1 28.74 69.2916)" class="st1 st2">248.18</text>
</g>
<g id="_x32_62.23">
	<text transform="matrix(1 0 0 1 28.74 159.4488)" class="st1 st2">262.23</text>
</g>
<g id="_x32_49.1">
	<text transform="matrix(1 0 0 1 28.74 238.5826)" class="st1 st2">249.1</text>
</g>
<g id="_x32_49.20">
	<text transform="matrix(1 0 0 1 28.74 313.7794)" class="st1 st2">249.20</text>
</g>
<g id="_x32_53.9">
	<text transform="matrix(1 0 0 1 680.7088 79.1338)" class="st1 st2">253.9</text>
</g>
<g id="_x32_53.14">
	<text transform="matrix(1 0 0 1 680.7088 156.6929)" class="st3 st1 st2">253.14</text>
</g>
<g id="_x32_53.21">
	<text transform="matrix(1 0 0 1 680.7088 235.4332)" class="st3 st1 st2">253.21</text>
</g>
<g id="_x32_54.11">
	<text transform="matrix(1 0 0 1 680.7088 316.9288)" class="st3 st1 st2">254.11</text>
</g>
</svg>
