<?xml version="1.0" encoding="UTF-8"?>
<!-- Generator: Adobe Illustrator 22.1.0, SVG Export Plug-In . SVG Version: 6.00 Build 0)  -->
<svg xmlns="http://www.w3.org/2000/svg" xmlns:xlink="http://www.w3.org/1999/xlink" version="1.1" x="0px" y="0px" viewBox="0 0 3900 5152" style="enable-background:new 0 0 3900 5152;" xml:space="preserve">
<style type="text/css">
	.st0{fill:#FFFFFF;}
	.st1{font-family:'Arial-BoldMT';}
	.st2{font-size:50px;}
</style>
<g id="_x37_68.22">
	<text transform="matrix(1 0 0 1 43.75 1854.0278)" class="st0 st1 st2">768.22</text>
</g>
<g id="_x37_68.13">
	<text transform="matrix(1 0 0 1 47 709)" class="st0 st1 st2">768.13</text>
</g>
<g id="_x37_69.1">
	<text transform="matrix(1 0 0 1 47 3043)" class="st0 st1 st2">769.1</text>
</g>
<g id="_x37_69.6">
	<text transform="matrix(1 0 0 1 47 3712)" class="st0 st1 st2">769.6</text>
</g>
<g id="_x37_69.13">
	<text transform="matrix(1 0 0 1 47 4629)" class="st0 st1 st2">769.13</text>
</g>
<g id="_x37_69.14">
	<text transform="matrix(1 0 0 1 3696 708.6152)" class="st0 st1 st2">769.14</text>
</g>
<g id="_x37_69.20">
	<text transform="matrix(1 0 0 1 3696 1573.6152)" class="st0 st1 st2">769.20</text>
</g>
<g id="_x37_71.1">
	<text transform="matrix(1 0 0 1 3696 3575.6152)" class="st0 st1 st2">771.1</text>
</g>
<g id="_x37_71.7">
	<text transform="matrix(1 0 0 1 3696 4352.6152)" class="st0 st1 st2">771.7</text>
</g>
<g id="_x37_70.1">
	<text transform="matrix(1 0 0 1 3699 3040)" class="st0 st1 st2">770.1</text>
</g>
<g id="_x37_70.4">
	<text transform="matrix(1 0 0 1 3697 2918)" class="st0 st1 st2">770.4</text>
</g>
</svg>
