<?xml version="1.0" encoding="utf-8"?>
<!-- Generator: Adobe Illustrator 24.3.0, SVG Export Plug-In . SVG Version: 6.00 Build 0)  -->
<svg version="1.1" xmlns="http://www.w3.org/2000/svg" xmlns:xlink="http://www.w3.org/1999/xlink" x="0px" y="0px"
	 viewBox="0 0 807.09 635.43" style="enable-background:new 0 0 807.09 635.43;" xml:space="preserve">
<style type="text/css">
	.st0{font-family:'Arial-BoldMT';}
	.st1{font-size:8px;}
	.st2{fill:#FFFFFF;}
	.st3{fill:#FEFEFE;}
</style>
<g id="_x32_69.11">
	<text transform="matrix(1 0 0 1 59.0222 68.0877)" class="st0 st1">269.11</text>
</g>
<g id="_x32_73.28">
	<text transform="matrix(1 0 0 1 708.2346 69.2688)" class="st0 st1">273.28</text>
</g>
<g id="_x32_71.19">
	<text transform="matrix(1 0 0 1 290.551 48.3269)" class="st2 st0 st1">271.19</text>
</g>
<g id="_x32_71.24">
	<text transform="matrix(1 0 0 1 290.551 136.5159)" class="st2 st0 st1">271.24</text>
</g>
<g id="_x32_72.2">
	<text transform="matrix(1 0 0 1 290.551 229.823)" class="st2 st0 st1">272.2</text>
</g>
<g id="_x32_72.12">
	<text transform="matrix(1 0 0 1 290.551 306.201)" class="st2 st0 st1">272.12</text>
</g>
<g id="_x32_72.19">
	<text transform="matrix(1 0 0 1 290.551 390.847)" class="st2 st0 st1">272.19</text>
</g>
<g id="_x32_72.24">
	<text transform="matrix(1 0 0 1 290.551 483.3665)" class="st2 st0 st1">272.24</text>
</g>
<g id="_x32_74.3">
	<text transform="matrix(1 0 0 1 708.2346 150.7649)" class="st0 st1">274.3</text>
</g>
<g id="_x32_74.10">
	<text transform="matrix(1 0 0 1 708.2346 239.3474)" class="st0 st1">274.10</text>
</g>
<g id="_x32_74.21">
	<text transform="matrix(1 0 0 1 708.2346 332.6546)" class="st0 st1">274.21</text>
</g>
<g id="_x32_74.28">
	<text transform="matrix(1 0 0 1 708.2346 406.2766)" class="st0 st1">274.28</text>
</g>
<g id="_x32_75.3">
	<text transform="matrix(1 0 0 1 708.2346 499.5833)" class="st0 st1">275.3</text>
</g>
<g id="_x32_69.16">
	<text transform="matrix(1 0 0 1 59.0222 152.7332)" class="st3 st0 st1">269.16</text>
</g>
<g id="_x32_69.23">
	<text transform="matrix(1 0 0 1 59.0222 248.0086)" class="st3 st0 st1">269.23</text>
</g>
<g id="_x32_70.3">
	<text transform="matrix(1 0 0 1 59.0222 325.5677)" class="st3 st0 st1">270.3</text>
</g>
<g id="_x32_70.10">
	<text transform="matrix(1 0 0 1 59.0222 401.1585)" class="st3 st0 st1">270.10</text>
</g>
<g id="_x32_70.16">
	<text transform="matrix(1 0 0 1 42.093 507.8509)" class="st3 st0 st1">270.16</text>
</g>
</svg>
