<?xml version="1.0" encoding="utf-8"?>
<!-- Generator: Adobe Illustrator 24.3.0, SVG Export Plug-In . SVG Version: 6.00 Build 0)  -->
<svg version="1.1" xmlns="http://www.w3.org/2000/svg" xmlns:xlink="http://www.w3.org/1999/xlink" x="0px" y="0px"
	 viewBox="0 0 866.14 595.67" style="enable-background:new 0 0 866.14 595.67;" xml:space="preserve">
<style type="text/css">
	.st0{fill:#FFFEFE;}
	.st1{font-family:'Arial-BoldMT';}
	.st2{font-size:8px;}
	.st3{fill:#FFFFFF;}
</style>
<g id="_x32_14.2">
	<text transform="matrix(1 0 0 1 81.8896 55.1179)" class="st0 st1 st2">214.2</text>
</g>
<g id="_x32_14.14">
	<text transform="matrix(1 0 0 1 81.8896 210.2361)" class="st0 st1 st2">214.14</text>
</g>
<g id="_x32_15.7">
	<text transform="matrix(1 0 0 1 81.8896 291.7321)" class="st0 st1 st2">215.7</text>
</g>
<g id="_x32_15.17">
	<text transform="matrix(1 0 0 1 81.8896 377.1653)" class="st0 st1 st2">215.17</text>
</g>
<g id="_x32_14.9">
	<text transform="matrix(1 0 0 1 81.8896 123.6218)" class="st1 st2">214.9</text>
</g>
<g id="_x32_15.23">
	<text transform="matrix(1 0 0 1 81.8896 477.5588)" class="st1 st2">215.23</text>
</g>
<g id="_x32_18.19">
	<text transform="matrix(1 0 0 1 758.6616 49.2126)" class="st1 st2">218.19</text>
</g>
<g id="_x32_18.26">
	<text transform="matrix(1 0 0 1 758.6616 128.3464)" class="st1 st2">218.26</text>
</g>
<g id="_x32_19.1">
	<text transform="matrix(1 0 0 1 758.6616 208.6614)" class="st1 st2">219.1</text>
</g>
<g id="_x32_19.25">
	<text transform="matrix(1 0 0 1 758.6616 291.7321)" class="st1 st2">219.25</text>
</g>
<g id="_x32_20.4">
	<text transform="matrix(1 0 0 1 758.6616 382.677)" class="st1 st2">220.4</text>
</g>
<g id="_x32_20.10">
	<text transform="matrix(1 0 0 1 758.6616 485.0393)" class="st1 st2">220.10</text>
</g>
<g id="_x32_16.10">
	<text transform="matrix(1 0 0 1 342.9135 35.4328)" class="st3 st1 st2">216.10</text>
</g>
<g id="_x32_16.17">
	<text transform="matrix(1 0 0 1 342.9135 109.449)" class="st3 st1 st2">216.17</text>
</g>
<g id="_x32_16.22">
	<text transform="matrix(1 0 0 1 342.9135 191.3386)" class="st3 st1 st2">216.22</text>
</g>
<g id="_x32_17.15">
	<text transform="matrix(1 0 0 1 342.9135 273.6218)" class="st3 st1 st2">217.15</text>
</g>
<g id="_x32_17.25">
	<text transform="matrix(1 0 0 1 342.9135 353.1496)" class="st3 st1 st2">217.25</text>
</g>
<g id="_x32_17.30">
	<text transform="matrix(1 0 0 1 342.9135 450.7873)" class="st3 st1 st2">217.30</text>
</g>
</svg>
