<?xml version="1.0" encoding="utf-8"?>
<!-- Generator: Adobe Illustrator 24.3.0, SVG Export Plug-In . SVG Version: 6.00 Build 0)  -->
<svg version="1.1" xmlns="http://www.w3.org/2000/svg" xmlns:xlink="http://www.w3.org/1999/xlink" x="0px" y="0px"
	 viewBox="0 0 866.14 938.58" style="enable-background:new 0 0 866.14 938.58;" xml:space="preserve">
<style type="text/css">
	.st0{font-family:'Arial-BoldMT';}
	.st1{font-size:8px;}
	.st2{fill:#FFFEFE;}
	.st3{fill:#FFFFFF;}
</style>
<g id="_x32_34.24">
	<text transform="matrix(1 0 0 1 74.1523 105.7743)" class="st0 st1">234.24</text>
</g>
<g id="_x32_35.1">
	<text transform="matrix(1 0 0 1 74.1523 173.8846)" class="st0 st1">235.1</text>
</g>
<g id="_x32_35.14">
	<text transform="matrix(1 0 0 1 74.1523 256.1683)" class="st0 st1">235.14</text>
</g>
<g id="_x32_35.19">
	<text transform="matrix(1 0 0 1 74.1523 362.8612)" class="st0 st1">235.19</text>
</g>
<g id="_x32_35.29">
	<text transform="matrix(1 0 0 1 74.1523 532.5458)" class="st0 st1">235.29</text>
</g>
<g id="_x32_36.7">
	<text transform="matrix(1 0 0 1 74.1523 693.1757)" class="st0 st1">236.7</text>
</g>
<g id="_x32_36.15">
	<text transform="matrix(1 0 0 1 74.1523 775.4598)" class="st0 st1">236.15</text>
</g>
<g id="_x32_39.12">
	<text transform="matrix(1 0 0 1 750.392 91.3387)" class="st2 st0 st1">239.12</text>
</g>
<g id="_x32_40.2">
	<text transform="matrix(1 0 0 1 750.392 250.3939)" class="st2 st0 st1">240.2</text>
</g>
<g id="_x32_40.7">
	<text transform="matrix(1 0 0 1 750.392 364.5668)" class="st2 st0 st1">240.7</text>
</g>
<g id="_x32_39.20">
	<text transform="matrix(1 0 0 1 750.392 182.2836)" class="st0 st1">239.20</text>
</g>
<g id="_x32_40.18">
	<text transform="matrix(1 0 0 1 745.2739 534.6454)" class="st0 st1">240.18</text>
</g>
<g id="_x32_40.26">
	<text transform="matrix(1 0 0 1 745.2739 692.5194)" class="st0 st1">240.26</text>
</g>
<g id="_x32_41.5">
	<text transform="matrix(1 0 0 1 745.2739 786.2206)" class="st0 st1">241.5</text>
</g>
<g id="_x32_37.3">
	<text transform="matrix(1 0 0 1 314.9604 80.9056)" class="st3 st0 st1">237.3</text>
</g>
<g id="_x32_37.10">
	<text transform="matrix(1 0 0 1 314.9604 158.0712)" class="st3 st0 st1">237.10</text>
</g>
<g id="_x32_37.22">
	<text transform="matrix(1 0 0 1 314.9604 239.9608)" class="st3 st0 st1">237.22</text>
</g>
<g id="_x32_37.28">
	<text transform="matrix(1 0 0 1 314.9604 344.2914)" class="st3 st0 st1">237.28</text>
</g>
<g id="_x32_38.8">
	<text transform="matrix(1 0 0 1 314.9604 506.1024)" class="st3 st0 st1">238.8</text>
</g>
<g id="_x32_38.16">
	<text transform="matrix(1 0 0 1 314.9604 673.4257)" class="st3 st0 st1">238.16</text>
</g>
<g id="_x32_38.24">
	<text transform="matrix(1 0 0 1 314.9604 761.2206)" class="st3 st0 st1">238.24</text>
</g>
</svg>
