<?xml version="1.0" encoding="utf-8"?>
<!-- Generator: Adobe Illustrator 24.3.0, SVG Export Plug-In . SVG Version: 6.00 Build 0)  -->
<svg version="1.1" xmlns="http://www.w3.org/2000/svg" xmlns:xlink="http://www.w3.org/1999/xlink" x="0px" y="0px"
	 viewBox="0 0 866.14 622.44" style="enable-background:new 0 0 866.14 622.44;" xml:space="preserve">
<style type="text/css">
	.st0{font-family:'Arial-BoldMT';}
	.st1{font-size:8px;}
	.st2{fill:#FFFFFF;}
	.st3{fill:#010101;}
</style>
<g id="_x32_07.4">
	<text transform="matrix(1 0 0 1 94.2915 66.512)" class="st0 st1">207.4</text>
</g>
<g id="_x32_07.11">
	<text transform="matrix(1 0 0 1 94.2915 159.8187)" class="st0 st1">207.11</text>
</g>
<g id="_x32_07.16">
	<text transform="matrix(1 0 0 1 94.2915 242.1024)" class="st0 st1">207.16</text>
</g>
<g id="_x32_08.9">
	<text transform="matrix(1 0 0 1 94.2915 330.6849)" class="st0 st1">208.9</text>
</g>
<g id="_x32_08.19">
	<text transform="matrix(1 0 0 1 94.2915 411.0003)" class="st0 st1">208.19</text>
</g>
<g id="_x32_08.25">
	<text transform="matrix(1 0 0 1 94.2915 499.9759)" class="st0 st1">208.25</text>
</g>
<g id="_x32_11.23">
	<text transform="matrix(1 0 0 1 730.9057 76.3524)" class="st0 st1">211.23</text>
</g>
<g id="_x32_11.30_1_">
	<text transform="matrix(1 0 0 1 730.9057 155.8797)" class="st0 st1">211.30</text>
</g>
<g id="_x32_11.30">
	<text transform="matrix(1 0 0 1 747.4409 249.9744)" class="st2 st0 st1">211.30</text>
</g>
<g id="_x32_12.28">
	<text transform="matrix(1 0 0 1 747.4409 337.7698)" class="st2 st0 st1">212.28</text>
</g>
<g id="_x32_13.8">
	<text transform="matrix(1 0 0 1 747.4409 405.8802)" class="st2 st0 st1">213.8</text>
</g>
<g id="_x32_13.14">
	<text transform="matrix(1 0 0 1 747.4409 499.9739)" class="st3 st0 st1">213.14</text>
</g>
</svg>
