<?xml version="1.0" encoding="utf-8"?>
<!-- Generator: Adobe Illustrator 24.3.0, SVG Export Plug-In . SVG Version: 6.00 Build 0)  -->
<svg version="1.1" xmlns="http://www.w3.org/2000/svg" xmlns:xlink="http://www.w3.org/1999/xlink" x="0px" y="0px"
	 viewBox="0 0 866.14 932.68" style="enable-background:new 0 0 866.14 932.68;" xml:space="preserve">
<style type="text/css">
	.st0{font-family:'Arial-BoldMT';}
	.st1{font-size:8px;}
	.st2{fill:#FFFFFF;}
</style>
<g id="_x31_98.3">
	<text transform="matrix(1 0 0 1 755.2397 87.7952)" class="st0 st1">198.3</text>
</g>
<g id="_x31_98.23">
	<text transform="matrix(1 0 0 1 755.2397 257.4802)" class="st0 st1">198.23</text>
</g>
<g id="_x31_98.9">
	<text transform="matrix(1 0 0 1 755.2397 166.929)" class="st2 st0 st1">198.9</text>
</g>
<g id="_x31_98.29">
	<text transform="matrix(1 0 0 1 755.2397 372.0471)" class="st2 st0 st1">198.29</text>
</g>
<g id="_x31_99.9">
	<text transform="matrix(1 0 0 1 755.2397 527.9524)" class="st2 st0 st1">199.9</text>
</g>
<g id="_x31_99.17">
	<text transform="matrix(1 0 0 1 755.2397 688.1887)" class="st2 st0 st1">199.17</text>
</g>
<g id="_x31_99.25">
	<text transform="matrix(1 0 0 1 755.2397 777.9524)" class="st2 st0 st1">199.25</text>
</g>
<g id="_x31_95.23">
	<text transform="matrix(1 0 0 1 341.5634 70.2756)" class="st2 st0 st1">195.23</text>
</g>
<g id="_x31_95.30">
	<text transform="matrix(1 0 0 1 341.5634 154.5276)" class="st2 st0 st1">195.30</text>
</g>
<g id="_x31_96.13">
	<text transform="matrix(1 0 0 1 341.5634 234.8425)" class="st2 st0 st1">196.13</text>
</g>
<g id="_x31_96.18">
	<text transform="matrix(1 0 0 1 341.5634 342.323)" class="st2 st0 st1">196.18</text>
</g>
<g id="_x31_96.28">
	<text transform="matrix(1 0 0 1 341.5634 506.1028)" class="st2 st0 st1">196.28</text>
</g>
<g id="_x31_97.6">
	<text transform="matrix(1 0 0 1 341.5634 666.7327)" class="st2 st0 st1">197.6</text>
</g>
<g id="_x31_97.14">
	<text transform="matrix(1 0 0 1 341.5634 758.8586)" class="st2 st0 st1">197.14</text>
</g>
<g id="_x31_93.14">
	<text transform="matrix(1 0 0 1 96.2011 97.6379)" class="st0 st1">193.14</text>
</g>
<g id="_x31_93.21">
	<text transform="matrix(1 0 0 1 96.2011 171.26)" class="st0 st1">193.21</text>
</g>
<g id="_x31_94.4">
	<text transform="matrix(1 0 0 1 96.2011 251.575)" class="st0 st1">194.4</text>
</g>
<g id="_x31_94.9">
	<text transform="matrix(1 0 0 1 96.2011 355.9055)" class="st0 st1">194.9</text>
</g>
<g id="_x31_94.12">
	<text transform="matrix(1 0 0 1 96.2011 400.3938)" class="st0 st1">194.12</text>
</g>
<g id="_x31_94.19">
	<text transform="matrix(1 0 0 1 96.2011 522.8342)" class="st0 st1">194.19</text>
</g>
<g id="_x31_94.27">
	<text transform="matrix(1 0 0 1 96.2011 681.1028)" class="st0 st1">194.27</text>
</g>
<g id="_x31_95.5">
	<text transform="matrix(1 0 0 1 96.2011 770.8665)" class="st0 st1">195.5</text>
</g>
</svg>
