<?xml version="1.0" encoding="utf-8"?>
<!-- Generator: Adobe Illustrator 24.3.0, SVG Export Plug-In . SVG Version: 6.00 Build 0)  -->
<svg version="1.1" xmlns="http://www.w3.org/2000/svg" xmlns:xlink="http://www.w3.org/1999/xlink" x="0px" y="0px"
	 viewBox="0 0 866.14 666.54" style="enable-background:new 0 0 866.14 666.54;" xml:space="preserve">
<style type="text/css">
	.st0{fill:#040404;}
	.st1{font-family:'Arial-BoldMT';}
	.st2{font-size:8px;}
	.st3{fill:#FFFEFE;}
	.st4{fill:#FFFFFF;}
</style>
<g id="_x31_79.10">
	<text transform="matrix(1 0 0 1 95.0786 106.299)" class="st0 st1 st2">179.10</text>
</g>
<g id="_x31_79.15">
	<text transform="matrix(1 0 0 1 95.0786 194.882)" class="st0 st1 st2">179.15</text>
</g>
<g id="_x31_79.23">
	<text transform="matrix(1 0 0 1 95.0786 284.2521)" class="st0 st1 st2">179.23</text>
</g>
<g id="_x31_80.13">
	<text transform="matrix(1 0 0 1 95.0786 416.9294)" class="st0 st1 st2">180.13</text>
</g>
<g id="_x31_80.15">
	<text transform="matrix(1 0 0 1 95.0786 440.1579)" class="st0 st1 st2">180.15</text>
</g>
<g id="_x31_80.20">
	<text transform="matrix(1 0 0 1 95.0786 477.5593)" class="st0 st1 st2">180.20</text>
</g>
<g id="_x31_84.3">
	<text transform="matrix(1 0 0 1 739.5668 184.6457)" class="st0 st1 st2">184.3</text>
</g>
<g id="_x31_84.10">
	<text transform="matrix(1 0 0 1 739.5668 278.3464)" class="st0 st1 st2">184.10</text>
</g>
<g id="_x31_85.1">
	<text transform="matrix(1 0 0 1 739.5668 407.0866)" class="st0 st1 st2">185.1</text>
</g>
<g id="_x31_85.4">
	<text transform="matrix(1 0 0 1 739.5668 450.3932)" class="st3 st1 st2">185.4</text>
</g>
<g id="_x31_85.7">
	<text transform="matrix(1 0 0 1 739.5668 484.2516)" class="st0 st1 st2">185.7</text>
</g>
<g id="_x31_81.19">
	<text transform="matrix(1 0 0 1 342.4418 88.5266)" class="st4 st1 st2">181.19</text>
</g>
<g id="_x31_81.24">
	<text transform="matrix(1 0 0 1 342.4418 173.5661)" class="st4 st1 st2">181.24</text>
</g>
<g id="_x31_82.1">
	<text transform="matrix(1 0 0 1 342.4418 258.6057)" class="st4 st1 st2">182.1</text>
</g>
<g id="_x31_82.21">
	<text transform="matrix(1 0 0 1 342.4418 386.5583)" class="st4 st1 st2">182.21</text>
</g>
<g id="_x31_83.28">
	<text transform="matrix(1 0 0 1 737.4018 110.236)" class="st4 st1 st2">183.28</text>
</g>
</svg>
