<?xml version="1.0" encoding="utf-8"?>
<!-- Generator: Adobe Illustrator 24.3.0, SVG Export Plug-In . SVG Version: 6.00 Build 0)  -->
<svg version="1.1" xmlns="http://www.w3.org/2000/svg" xmlns:xlink="http://www.w3.org/1999/xlink" x="0px" y="0px"
	 viewBox="0 0 846.85 931.89" style="enable-background:new 0 0 846.85 931.89;" xml:space="preserve">
<style type="text/css">
	.st0{fill:#FFFFFF;}
	.st1{font-family:'Arial-BoldMT';}
	.st2{font-size:8px;}
</style>
<g id="_x32_41.21">
	<text transform="matrix(1 0 0 1 89.3304 81.4962)" class="st0 st1 st2">241.21</text>
</g>
<g id="_x32_42.11">
	<text transform="matrix(1 0 0 1 89.3304 248.4254)" class="st0 st1 st2">242.11</text>
</g>
<g id="_x32_42.16">
	<text transform="matrix(1 0 0 1 89.3304 368.1104)" class="st0 st1 st2">242.16</text>
</g>
<g id="_x32_41.29">
	<text transform="matrix(1 0 0 1 89.3304 172.441)" class="st1 st2">241.29</text>
</g>
<g id="_x32_42.27">
	<text transform="matrix(1 0 0 1 89.3304 520.8663)" class="st1 st2">242.27</text>
</g>
<g id="_x32_43.5">
	<text transform="matrix(1 0 0 1 89.3304 676.7716)" class="st1 st2">243.5</text>
</g>
<g id="_x32_43.14">
	<text transform="matrix(1 0 0 1 89.3304 778.3468)" class="st1 st2">243.14</text>
</g>
<g id="_x32_46.8">
	<text transform="matrix(1 0 0 1 762.6595 96.8502)" class="st1 st2">246.8</text>
</g>
<g id="_x32_46.15">
	<text transform="matrix(1 0 0 1 762.6595 166.5353)" class="st1 st2">246.15</text>
</g>
<g id="_x32_46.28">
	<text transform="matrix(1 0 0 1 762.6595 246.0631)" class="st1 st2">246.28</text>
</g>
<g id="_x32_47.3">
	<text transform="matrix(1 0 0 1 762.6595 362.5982)" class="st1 st2">247.3</text>
</g>
<g id="_x32_47.13">
	<text transform="matrix(1 0 0 1 762.6595 507.4806)" class="st1 st2">247.13</text>
</g>
<g id="_x32_47.21">
	<text transform="matrix(1 0 0 1 762.6595 675.1964)" class="st1 st2">247.21</text>
</g>
<g id="_x32_48.1">
	<text transform="matrix(1 0 0 1 762.6595 763.7794)" class="st1 st2">248.1</text>
</g>
<g id="_x32_43.29">
	<text transform="matrix(1 0 0 1 357.0847 68.1105)" class="st0 st1 st2">243.29</text>
</g>
<g id="_x32_44.7">
	<text transform="matrix(1 0 0 1 357.0847 153.9371)" class="st0 st1 st2">244.7</text>
</g>
<g id="_x32_44.19">
	<text transform="matrix(1 0 0 1 357.0847 230.7086)" class="st0 st1 st2">244.19</text>
</g>
<g id="_x32_44.25">
	<text transform="matrix(1 0 0 1 357.0847 347.6378)" class="st0 st1 st2">244.25</text>
</g>
<g id="_x32_45.5">
	<text transform="matrix(1 0 0 1 357.0847 494.8819)" class="st0 st1 st2">245.5</text>
</g>
<g id="_x32_45.13">
	<text transform="matrix(1 0 0 1 357.0847 662.5988)" class="st0 st1 st2">245.13</text>
</g>
<g id="_x32_45.21">
	<text transform="matrix(1 0 0 1 357.0847 761.0236)" class="st0 st1 st2">245.21</text>
</g>
</svg>
