<?xml version="1.0" encoding="utf-8"?>
<!-- Generator: Adobe Illustrator 22.1.0, SVG Export Plug-In . SVG Version: 6.00 Build 0)  -->
<svg version="1.1" xmlns="http://www.w3.org/2000/svg" xmlns:xlink="http://www.w3.org/1999/xlink" x="0px" y="0px"
	 viewBox="0 0 865.4 887" style="enable-background:new 0 0 865.4 887;" xml:space="preserve">
<style type="text/css">
	.st0{fill:#FFFFFF;}
	.st1{font-family:'Arial-BoldMT';}
	.st2{font-size:8px;}
</style>
<g id="_x32_02.21">
	<text transform="matrix(1 0 0 1 393.9959 68.3072)" class="st0 st1 st2">202.21</text>
</g>
<g id="_x32_02.28">
	<text transform="matrix(1 0 0 1 393.9959 155.7091)" class="st0 st1 st2">202.28</text>
</g>
<g id="_x32_03.10">
	<text transform="matrix(1 0 0 1 393.9959 241.5357)" class="st0 st1 st2">203.10</text>
</g>
<g id="_x32_03.16">
	<text transform="matrix(1 0 0 1 393.9959 350.9845)" class="st0 st1 st2">203.16</text>
</g>
<g id="_x32_03.28">
	<text transform="matrix(1 0 0 1 393.9959 537.9927)" class="st0 st1 st2">203.28</text>
</g>
<g id="_x32_04.6">
	<text transform="matrix(1 0 0 1 393.9959 675.7877)" class="st0 st1 st2">204.6</text>
</g>
<g id="_x32_04.14">
	<text transform="matrix(1 0 0 1 393.9959 765.5513)" class="st0 st1 st2">204.14</text>
</g>
<g id="_x32_00.12">
	<text transform="matrix(1 0 0 1 161.0237 86.1837)" class="st1 st2">200.12</text>
</g>
<g id="_x32_01.2">
	<text transform="matrix(1 0 0 1 161.0237 255.0811)" class="st1 st2">201.2</text>
</g>
<g id="_x32_00.19">
	<text transform="matrix(1 0 0 1 161.0237 165.711)" class="st0 st1 st2">200.19</text>
</g>
<g id="_x32_01.7">
	<text transform="matrix(1 0 0 1 161.0237 364.9234)" class="st0 st1 st2">201.7</text>
</g>
<g id="_x32_01.18">
	<text transform="matrix(1 0 0 1 161.0237 557.8365)" class="st0 st1 st2">201.18</text>
</g>
<g id="_x32_01.26">
	<text transform="matrix(1 0 0 1 161.0237 695.2388)" class="st0 st1 st2">201.26</text>
</g>
<g id="_x32_02.4">
	<text transform="matrix(1 0 0 1 161.0237 790.1207)" class="st0 st1 st2">202.4</text>
</g>
<g id="_x32_05.2">
	<text transform="matrix(1 0 0 1 831.1019 102.9527)" class="st1 st2">205.2</text>
</g>
<g id="_x32_05.9">
	<text transform="matrix(1 0 0 1 831.1019 176.9688)" class="st1 st2">205.9</text>
</g>
<g id="_x32_05.22">
	<text transform="matrix(1 0 0 1 831.1019 259.252)" class="st1 st2">205.22</text>
</g>
<g id="_x32_05.27">
	<text transform="matrix(1 0 0 1 831.1019 373.4254)" class="st1 st2">205.27</text>
</g>
<g id="_x32_06.7">
	<text transform="matrix(1 0 0 1 831.1019 563.5826)" class="st1 st2">206.7</text>
</g>
<g id="_x32_06.15">
	<text transform="matrix(1 0 0 1 831.1019 696.6539)" class="st1 st2">206.15</text>
</g>
<g id="_x32_06.23">
	<text transform="matrix(1 0 0 1 831.1019 782.0865)" class="st1 st2">206.23</text>
</g>
</svg>
