<?xml version="1.0" encoding="utf-8"?>
<!-- Generator: Adobe Illustrator 22.1.0, SVG Export Plug-In . SVG Version: 6.00 Build 0)  -->
<svg version="1.1" xmlns="http://www.w3.org/2000/svg" xmlns:xlink="http://www.w3.org/1999/xlink" x="0px" y="0px"
	 viewBox="0 0 757.9 583.9" style="enable-background:new 0 0 757.9 583.9;" xml:space="preserve">
<style type="text/css">
	.st0{font-family:'Arial-BoldMT';}
	.st1{font-size:8px;}
	.st2{fill:#FFFFFF;}
	.st3{fill:#FEFEFE;}
</style>
<g id="_x32_69.11">
	<text transform="matrix(1 0 0 1 59.0219 68.0874)" class="st0 st1">269.11</text>
</g>
<g id="_x32_73.28">
	<text transform="matrix(1 0 0 1 708.2347 69.2685)" class="st0 st1">273.28</text>
</g>
<g id="_x32_71.19">
	<text transform="matrix(1 0 0 1 290.5511 48.3266)" class="st2 st0 st1">271.19</text>
</g>
<g id="_x32_71.24">
	<text transform="matrix(1 0 0 1 290.5511 136.5156)" class="st2 st0 st1">271.24</text>
</g>
<g id="_x32_72.2">
	<text transform="matrix(1 0 0 1 290.5511 229.8227)" class="st2 st0 st1">272.2</text>
</g>
<g id="_x32_72.12">
	<text transform="matrix(1 0 0 1 290.5511 306.2011)" class="st2 st0 st1">272.12</text>
</g>
<g id="_x32_72.19">
	<text transform="matrix(1 0 0 1 290.5511 390.8466)" class="st2 st0 st1">272.19</text>
</g>
<g id="_x32_72.24">
	<text transform="matrix(1 0 0 1 290.5511 483.3662)" class="st2 st0 st1">272.24</text>
</g>
<g id="_x32_74.3">
	<text transform="matrix(1 0 0 1 708.2347 150.7646)" class="st0 st1">274.3</text>
</g>
<g id="_x32_74.10">
	<text transform="matrix(1 0 0 1 708.2347 239.3472)" class="st0 st1">274.10</text>
</g>
<g id="_x32_74.21">
	<text transform="matrix(1 0 0 1 708.2347 332.6543)" class="st0 st1">274.21</text>
</g>
<g id="_x32_74.28">
	<text transform="matrix(1 0 0 1 708.2347 406.2763)" class="st0 st1">274.28</text>
</g>
<g id="_x32_75.3">
	<text transform="matrix(1 0 0 1 708.2347 499.584)" class="st0 st1">275.3</text>
</g>
<g id="_x32_69.16">
	<text transform="matrix(1 0 0 1 59.0219 152.7334)" class="st3 st0 st1">269.16</text>
</g>
<g id="_x32_69.23">
	<text transform="matrix(1 0 0 1 59.0219 248.0088)" class="st3 st0 st1">269.23</text>
</g>
<g id="_x32_70.3">
	<text transform="matrix(1 0 0 1 59.0219 325.5674)" class="st3 st0 st1">270.3</text>
</g>
<g id="_x32_70.10">
	<text transform="matrix(1 0 0 1 59.0219 401.1582)" class="st3 st0 st1">270.10</text>
</g>
<g id="_x32_70.16">
	<text transform="matrix(1 0 0 1 42.0927 507.8515)" class="st3 st0 st1">270.16</text>
</g>
</svg>
