<?xml version="1.0" encoding="utf-8"?>
<!-- Generator: Adobe Illustrator 22.1.0, SVG Export Plug-In . SVG Version: 6.00 Build 0)  -->
<svg version="1.1" xmlns="http://www.w3.org/2000/svg" xmlns:xlink="http://www.w3.org/1999/xlink" x="0px" y="0px"
	 viewBox="0 0 760.2 615" style="enable-background:new 0 0 760.2 615;" xml:space="preserve">
<style type="text/css">
	.st0{fill:#FFFFFF;}
	.st1{font-family:'Arial-BoldMT';}
	.st2{font-size:8px;}
</style>
<g id="_x32_64.22">
	<text transform="matrix(1 0 0 1 260.2362 66.5355)" class="st0 st1 st2">264.22</text>
</g>
<g id="_x32_64.27">
	<text transform="matrix(1 0 0 1 260.2362 151.181)" class="st0 st1 st2">264.27</text>
</g>
<g id="_x32_65.4">
	<text transform="matrix(1 0 0 1 260.2362 231.496)" class="st0 st1 st2">265.4</text>
</g>
<g id="_x32_65.14">
	<text transform="matrix(1 0 0 1 260.2362 328.3461)" class="st0 st1 st2">265.14</text>
</g>
<g id="_x32_65.22">
	<text transform="matrix(1 0 0 1 260.2362 421.6537)" class="st0 st1 st2">265.22</text>
</g>
<g id="_x32_65.27">
	<text transform="matrix(1 0 0 1 260.2362 510.6303)" class="st0 st1 st2">265.27</text>
</g>
<g id="_x32_62.13">
	<text transform="matrix(1 0 0 1 28.3465 83.4647)" class="st1 st2">262.13</text>
</g>
<g id="_x32_62.18">
	<text transform="matrix(1 0 0 1 28.3465 165.3544)" class="st1 st2">262.18</text>
</g>
<g id="_x32_62.25">
	<text transform="matrix(1 0 0 1 28.3465 240.9447)" class="st1 st2">262.25</text>
</g>
<g id="_x32_63.5">
	<text transform="matrix(1 0 0 1 28.3465 344.8822)" class="st1 st2">263.5</text>
</g>
<g id="_x32_63.13">
	<text transform="matrix(1 0 0 1 28.3465 442.1264)" class="st1 st2">263.13</text>
</g>
<g id="_x32_63.18">
	<text transform="matrix(1 0 0 1 28.3465 532.6771)" class="st1 st2">263.18</text>
</g>
<g id="_x32_67.2">
	<text transform="matrix(1 0 0 1 671.2596 86.2206)" class="st1 st2">267.2</text>
</g>
<g id="_x32_67.6">
	<text transform="matrix(1 0 0 1 671.2596 161.4174)" class="st0 st1 st2">267.6</text>
</g>
<g id="_x32_67.14">
	<text transform="matrix(1 0 0 1 671.2596 249.6063)" class="st0 st1 st2">267.14</text>
</g>
<g id="_x32_67.24">
	<text transform="matrix(1 0 0 1 671.2596 352.3617)" class="st0 st1 st2">267.24</text>
</g>
<g id="_x32_68.1">
	<text transform="matrix(1 0 0 1 671.2596 440.9447)" class="st0 st1 st2">268.1</text>
</g>
<g id="_x32_68.6">
	<text transform="matrix(1 0 0 1 659.449 530.3148)" class="st1 st2">268.6</text>
</g>
</svg>
