<?xml version="1.0" encoding="utf-8"?>
<!-- Generator: Adobe Illustrator 22.1.0, SVG Export Plug-In . SVG Version: 6.00 Build 0)  -->
<svg version="1.1" xmlns="http://www.w3.org/2000/svg" xmlns:xlink="http://www.w3.org/1999/xlink" x="0px" y="0px"
	 viewBox="0 0 784.3 544.1" style="enable-background:new 0 0 784.3 544.1;" xml:space="preserve">
<style type="text/css">
	.st0{font-family:'Arial-BoldMT';}
	.st1{font-size:8px;}
	.st2{fill:#FFFFFF;}
	.st3{fill:#010101;}
</style>
<g id="_x32_20.28">
	<text transform="matrix(1 0 0 1 38.1889 48.4252)" class="st0 st1">220.28</text>
</g>
<g id="_x32_21.5">
	<text transform="matrix(1 0 0 1 38.1889 128.3466)" class="st0 st1">221.5</text>
</g>
<g id="_x32_21.10">
	<text transform="matrix(1 0 0 1 38.1889 209.4487)" class="st0 st1">221.10</text>
</g>
<g id="_x32_22.3">
	<text transform="matrix(1 0 0 1 38.1889 291.3388)" class="st0 st1">222.3</text>
</g>
<g id="_x32_22.13">
	<text transform="matrix(1 0 0 1 38.1889 386.2206)" class="st0 st1">222.13</text>
</g>
<g id="_x32_22.19">
	<text transform="matrix(1 0 0 1 38.1889 482.2831)" class="st0 st1">222.19</text>
</g>
<g id="_x32_25.13">
	<text transform="matrix(1 0 0 1 656.2987 46.8505)" class="st0 st1">225.13</text>
</g>
<g id="_x32_25.20">
	<text transform="matrix(1 0 0 1 656.2987 125.5908)" class="st2 st0 st1">225.20</text>
</g>
<g id="_x32_27.4">
	<text transform="matrix(1 0 0 1 656.2987 479.5273)" class="st2 st0 st1">227.4</text>
</g>
<g id="_x32_23.6-1">
	<text transform="matrix(1 0 0 1 256.6928 34.2519)" class="st2 st0 st1">223.6-1</text>
</g>
<g id="_x32_23.12">
	<text transform="matrix(1 0 0 1 256.6928 109.8427)" class="st2 st0 st1">223.12</text>
</g>
<g id="_x32_23.17">
	<text transform="matrix(1 0 0 1 256.6928 192.5195)" class="st2 st0 st1">223.17</text>
</g>
<g id="_x32_24.8">
	<text transform="matrix(1 0 0 1 258.2675 269.2914)" class="st2 st0 st1">224.8</text>
</g>
<g id="_x32_24.18">
	<text transform="matrix(1 0 0 1 258.2675 357.0869)" class="st2 st0 st1">224.18</text>
</g>
<g id="_x32_24.24">
	<text transform="matrix(1 0 0 1 258.2675 455.9052)" class="st2 st0 st1">224.24</text>
</g>
<g id="_x32_25.25">
	<text transform="matrix(1 0 0 1 656.2987 207.0868)" class="st3 st0 st1">225.25</text>
</g>
<g id="_x32_26.18">
	<text transform="matrix(1 0 0 1 656.2987 290.5507)" class="st3 st0 st1">226.18</text>
</g>
<g id="_x32_26.28">
	<text transform="matrix(1 0 0 1 656.2987 375.5908)" class="st3 st0 st1">226.28</text>
</g>
</svg>
