<?xml version="1.0" encoding="utf-8"?>
<!-- Generator: Adobe Illustrator 16.0.0, SVG Export Plug-In . SVG Version: 6.00 Build 0)  -->
<!DOCTYPE svg PUBLIC "-//W3C//DTD SVG 1.1//EN" "http://www.w3.org/Graphics/SVG/1.1/DTD/svg11.dtd">
<svg version="1.1" xmlns="http://www.w3.org/2000/svg" xmlns:xlink="http://www.w3.org/1999/xlink" x="0px" y="0px" width="3600px"
	 height="5069px" viewBox="0 0 3600 5069" enable-background="new 0 0 3600 5069" xml:space="preserve">
<g id="_x30_-1-02">
	<text transform="matrix(1 0 0 1 415 623.458)" font-family="'Arial-BoldMT'" font-size="46.26">0-1-02</text>
</g>
<g id="_x30_-1-03">
	<text transform="matrix(1 0 0 1 415 1607.6621)" font-family="'Arial-BoldMT'" font-size="46.26">0-1-03</text>
</g>
<g id="_x30_-1-04">
	<text transform="matrix(1 0 0 1 415 2026.3232)" font-family="'Arial-BoldMT'" font-size="46.26">0-1-04</text>
</g>
<g id="_x30_-13">
	<text transform="matrix(1 0 0 1 415 3953.7402)" font-family="'Arial-BoldMT'" font-size="46.26">0-13</text>
</g>
<g id="_x30_-20">
	<text transform="matrix(1 0 0 1 3423 776.3525)" fill="#FFFFFF" font-family="'Arial-BoldMT'" font-size="46.26">0-20</text>
</g>
<g id="_x30_-27">
	<text transform="matrix(1 0 0 1 3423 1348.8975)" fill="#FFFFFF" font-family="'Arial-BoldMT'" font-size="46.26">0-27</text>
</g>
<g id="_x30_-34">
	<text transform="matrix(1 0 0 1 3423 1963.3945)" fill="#FFFFFF" font-family="'Arial-BoldMT'" font-size="46.26">0-34</text>
</g>
<g id="_x30_-1">
	<text transform="matrix(1 0 0 1 404 2475.9756)" font-family="'Arial-BoldMT'" font-size="46.26">0-1</text>
</g>
<g id="_x30_-42">
	<text transform="matrix(1 0 0 1 3423 2640.8184)" fill="#FFFFFF" font-family="'Arial-BoldMT'" font-size="46.26">0-42</text>
</g>
<g id="_x30_-51">
	<text transform="matrix(1 0 0 1 3423 3701.9727)" fill="#FFFFFF" font-family="'Arial-BoldMT'" font-size="46.26">0-51</text>
</g>
</svg>
